<?xml version="1.0" encoding="utf-8"?>
<!-- Generator: Adobe Illustrator 22.0.1, SVG Export Plug-In . SVG Version: 6.00 Build 0)  -->
<svg version="1.1" id="Ebene_1" xmlns="http://www.w3.org/2000/svg" xmlns:xlink="http://www.w3.org/1999/xlink" x="0px" y="0px"
	 viewBox="0 0 860 183.3" style="enable-background:new 0 0 860 183.3;" xml:space="preserve">
<style type="text/css">
	.st0{fill:#FFFFFF;}
</style>
<g>
	<path class="st0" d="M136,108.2h-26.9l-7.6-58.7l-25,58.7H65.9L42,49.4l-8.8,58.7H6.5L24,6.2h26.6l20.9,54.4L93.6,6.2h26.8
		L136,108.2z"/>
	<path class="st0" d="M179.9,108.2H153V6.2h26.9V108.2z"/>
	<path class="st0" d="M326.6,108.2h-26.9l-7.6-58.7l-25,58.7h-10.7l-23.8-58.7l-8.8,58.7H197l17.6-102h26.6l20.9,54.4l22.1-54.4H311
		L326.6,108.2z"/>
	<path class="st0" d="M370.5,108.2h-26.9V6.2h26.9V108.2z"/>
	<path class="st0" d="M488.7,108.2H454l-34.9-44.2v44.2h-26.9V6.2h26.9v42.1l32.8-42.1H485l-41,48.3L488.7,108.2z"/>
	<path class="st0" d="M598.9,108.2h-28.7l-6.7-17.8h-37.1l-7.1,17.8h-28.4l39.7-102H560L598.9,108.2z M556.3,70.2l-11.1-32.5
		l-11.3,32.5H556.3z"/>
	<path class="st0" d="M735.7,108.2h-26.9l-7.6-58.7l-25,58.7h-10.7l-23.8-58.7l-8.8,58.7h-26.8l17.6-102h26.6l20.9,54.4l22.1-54.4
		h26.8L735.7,108.2z"/>
	<path class="st0" d="M850.9,108.2h-28.7l-6.7-17.8h-37.1l-7.1,17.8H743l39.7-102H812L850.9,108.2z M808.3,70.2l-11.1-32.5
		l-11.3,32.5H808.3z"/>
</g>
<g>
	<path class="st0" d="M35.9,139l-16.7,27.1h14.9v7.5H3.7l16.8-27.1h-14V139H35.9z"/>
	<path class="st0" d="M71.3,159c0,2.1-0.2,3.9-0.5,5.3c-0.5,2.3-1.8,4.4-3.8,6.2c-2.9,2.7-6.7,4-11.5,4c-4.9,0-8.7-1.4-11.5-4.1
		c-1.5-1.4-2.5-3.2-3-5.4c-0.4-1.5-0.6-3.6-0.6-6.1v-20h9.2v18.7c0,1.5,0,2.6,0.1,3.4c0.2,2.4,1.3,4,3.3,4.9
		c0.8,0.4,1.7,0.6,2.8,0.6c2.3,0,3.9-0.8,5.1-2.3c0.8-1.1,1.3-3.3,1.3-6.6V139h9.2V159z"/>
	<path class="st0" d="M98.9,173.7H78.7V139h20.2v7.5h-11v5.9h10.4v7.5H87.9v6.2h11V173.7z"/>
	<path class="st0" d="M134.2,173.7h-11.5l-8.8-13.3v13.3h-9.2V139h14.3c4.2,0,7.3,1.2,9.3,3.7c1.6,2,2.4,4.3,2.4,7
		c0,3.1-0.9,5.5-2.8,7.3c-1.2,1.2-2.8,2-4.9,2.4L134.2,173.7z M121.3,150.2c0-1.2-0.5-2.3-1.4-3.1c-0.9-0.8-2.3-1.2-4.2-1.2H114v8.6
		h1.7c1.9,0,3.3-0.4,4.2-1.2C120.8,152.5,121.3,151.4,121.3,150.2z"/>
	<path class="st0" d="M162.7,162.2c0,5.9-2.6,9.7-7.9,11.5c-1.8,0.6-3.8,0.9-5.9,0.9c-4.4,0-8.5-1.3-12.3-3.9l4-7.3
		c2.8,2.5,5.5,3.7,8.2,3.7c1.2,0,2.2-0.3,3-0.8c1-0.6,1.5-1.5,1.5-2.6c0-1-0.5-1.9-1.6-2.6c-0.8-0.5-2.1-1-4-1.6
		c-2.3-0.7-3.7-1.1-4.3-1.4c-0.9-0.4-1.7-0.8-2.4-1.4c-1.9-1.5-2.8-3.8-2.8-6.9c0-3.2,1-5.9,2.9-8c2.3-2.5,5.3-3.7,9.1-3.7
		c3.8,0,7.6,0.9,11.3,2.8l-3.7,7c-2-1.5-4-2.3-6.1-2.3c-1,0-1.9,0.2-2.7,0.7c-0.9,0.6-1.3,1.3-1.3,2.2c0,0.9,0.6,1.7,1.7,2.4
		c0.5,0.3,2.1,0.8,4.7,1.6c3.3,0.9,5.6,2.3,7,4C162.1,158.1,162.7,159.9,162.7,162.2z"/>
	<path class="st0" d="M189.5,146.5h-7.6v27.1h-9.2v-27.1h-7.5V139h24.4V146.5z"/>
	<path class="st0" d="M239.4,156.3c0,3.6-1.1,6.9-3.3,10c-2.2,3.1-5.1,5.2-8.5,6.4c-1.8,0.6-3.7,0.9-5.6,0.9h-13.6V139h13.6
		c3.3,0,6.4,0.9,9.3,2.7c2.8,1.8,4.9,4.1,6.4,7.1C238.8,151.2,239.4,153.7,239.4,156.3z M229.9,156.3c0-2.4-0.7-4.5-2.1-6.3
		c-1.8-2.4-4.5-3.5-8.2-3.5h-2.1v19.6h2.1c3.6,0,6.3-1.2,8.2-3.5C229.2,160.8,229.9,158.7,229.9,156.3z"/>
	<path class="st0" d="M265.5,173.7h-20.2V139h20.2v7.5h-11v5.9h10.4v7.5h-10.4v6.2h11V173.7z"/>
	<path class="st0" d="M306.8,173.7h-9.2l-17-21.2v21.2h-9.2V139h9.2l17,21.2V139h9.2V173.7z"/>
	<path class="st0" d="M347.3,173.7h-11.9l-12-15v15h-9.2V139h9.2v14.3l11.3-14.3H346L332,155.4L347.3,173.7z"/>
	<path class="st0" d="M371.6,173.7h-20.2V139h20.2v7.5h-11v5.9H371v7.5h-10.4v6.2h11V173.7z"/>
	<path class="st0" d="M412.9,173.7h-9.2l-17-21.2v21.2h-9.2V139h9.2l17,21.2V139h9.2V173.7z"/>
	<path class="st0" d="M445.1,164.5h-11.4v-5.4h11.4V164.5z"/>
	<path class="st0" d="M497.1,156.3c0,3.6-1.1,6.9-3.3,10s-5.1,5.2-8.5,6.4c-1.8,0.6-3.7,0.9-5.6,0.9H466V139h13.6
		c3.3,0,6.4,0.9,9.3,2.7c2.8,1.8,4.9,4.1,6.4,7.1C496.5,151.2,497.1,153.7,497.1,156.3z M487.6,156.3c0-2.4-0.7-4.5-2.1-6.3
		c-1.8-2.4-4.5-3.5-8.2-3.5h-2.1v19.6h2.1c3.6,0,6.3-1.2,8.2-3.5C486.9,160.8,487.6,158.7,487.6,156.3z"/>
	<path class="st0" d="M536.7,173.7h-9.8l-2.3-6h-12.7l-2.4,6h-9.7l13.6-34.7h10.1L536.7,173.7z M522.1,160.8l-3.8-11l-3.9,11H522.1z
		"/>
	<path class="st0" d="M576.2,173.7H567l-17-21.2v21.2h-9.2V139h9.2l17,21.2V139h9.2V173.7z"/>
	<path class="st0" d="M619.1,173.7h-9.2l-17-21.2v21.2h-9.2V139h9.2l17,21.2V139h9.2V173.7z"/>
	<path class="st0" d="M674.4,173.7h-11.9l-12-15v15h-9.2V139h9.2v14.3l11.3-14.3h11.4L659,155.4L674.4,173.7z"/>
	<path class="st0" d="M698.8,173.7h-20.3V139h9.2v27.1h11.1V173.7z"/>
	<path class="st0" d="M712.7,173.7h-9.2V139h9.2V173.7z"/>
	<path class="st0" d="M745.7,172.9c-3,1.2-5.8,1.8-8.4,1.8c-4.5,0-8.5-1.4-12-4.2c-4.5-3.6-6.8-8.2-6.8-14c0-5.8,2.3-10.4,6.8-14
		c3.5-2.8,7.6-4.2,12.1-4.2c2.5,0,5.2,0.6,8.3,1.8v10.8c-0.9-1-1.8-1.8-2.7-2.4c-1.6-1-3.4-1.5-5.3-1.5c-2.4,0-4.5,0.7-6.2,2.1
		c-2.2,1.8-3.4,4.2-3.4,7.3c0,3.1,1.1,5.5,3.4,7.3c1.8,1.4,3.9,2.1,6.2,2.1c1.9,0,3.7-0.5,5.3-1.5c0.9-0.5,1.8-1.3,2.7-2.4V172.9z"
		/>
	<path class="st0" d="M784.7,173.7h-11.9l-12-15v15h-9.2V139h9.2v14.3l11.3-14.3h11.4l-14.1,16.4L784.7,173.7z"/>
	<path class="st0" d="M809,173.7h-20.2V139H809v7.5h-11v5.9h10.4v7.5H798v6.2h11V173.7z"/>
	<path class="st0" d="M850.3,173.7h-9.2l-17-21.2v21.2h-9.2V139h9.2l17,21.2V139h9.2V173.7z"/>
</g>
</svg>
